<svg width="128" height="128" viewBox="0 0 128 128" fill="none" xmlns="http://www.w3.org/2000/svg">
<path d="M64 8C33.075 8 8 33.075 8 64C8 94.925 33.075 120 64 120C94.925 120 120 94.925 120 64C120 33.075 94.925 8 64 8ZM90.9125 50.2125C90.95 50.8 90.95 51.4125 90.95 52.0125C90.95 70.3625 76.975 91.5 51.4375 91.5C43.5625 91.5 36.2625 89.2125 30.1125 85.275C31.2375 85.4 32.3125 85.45 33.4625 85.45C39.9625 85.45 45.9375 83.25 50.7 79.525C44.6 79.4 39.475 75.4 37.725 69.9C39.8625 70.2125 41.7875 70.2125 43.9875 69.65C40.8466 69.0119 38.0234 67.306 35.9977 64.8223C33.972 62.3385 32.8686 59.2301 32.875 56.025V55.85C34.7125 56.8875 36.875 57.525 39.1375 57.6125C37.2355 56.3449 35.6757 54.6276 34.5964 52.6129C33.5171 50.5981 32.9515 48.3482 32.95 46.0625C32.95 43.475 33.625 41.1125 34.8375 39.0625C38.3238 43.3542 42.6741 46.8643 47.6058 49.3646C52.5375 51.8649 57.9401 53.2994 63.4625 53.575C61.5 44.1375 68.55 36.5 77.025 36.5C81.025 36.5 84.625 38.175 87.1625 40.875C90.3 40.2875 93.3 39.1125 95.975 37.5375C94.9375 40.75 92.7625 43.4625 89.875 45.175C92.675 44.875 95.375 44.1 97.875 43.0125C95.9875 45.7875 93.625 48.25 90.9125 50.2125V50.2125Z" fill="black"/>
</svg>
