<svg width="128" height="128" viewBox="0 0 128 128" fill="none" xmlns="http://www.w3.org/2000/svg">
<path d="M63.95 9.53748C33.0375 9.52498 8 34.55 8 65.4375C8 89.8625 23.6625 110.625 45.475 118.25C48.4125 118.987 47.9625 116.9 47.9625 115.475V105.787C31 107.775 30.3125 96.55 29.175 94.675C26.875 90.75 21.4375 89.75 23.0625 87.875C26.925 85.8875 30.8625 88.375 35.425 95.1125C38.725 100 45.1625 99.175 48.425 98.3625C49.1375 95.425 50.6625 92.8 52.7625 90.7625C35.1875 87.6125 27.8625 76.8875 27.8625 64.1375C27.8625 57.95 29.9 52.2625 33.9 47.675C31.35 40.1125 34.1375 33.6375 34.5125 32.675C41.775 32.025 49.325 37.875 49.9125 38.3375C54.0375 37.225 58.75 36.6375 64.025 36.6375C69.325 36.6375 74.05 37.25 78.2125 38.375C79.625 37.3 86.625 32.275 93.375 32.8875C93.7375 33.85 96.4625 40.175 94.0625 47.6375C98.1125 52.2375 100.175 57.975 100.175 64.175C100.175 76.95 92.8 87.6875 75.175 90.7875C76.6846 92.2721 77.8833 94.0426 78.701 95.9957C79.5187 97.9487 79.9391 100.045 79.9375 102.162V116.225C80.0375 117.35 79.9375 118.462 81.8125 118.462C103.95 111 119.887 90.0875 119.887 65.45C119.887 34.55 94.8375 9.53748 63.95 9.53748V9.53748Z" fill="black"/>
</svg>
