<svg width="128" height="128" viewBox="0 0 128 128" fill="none" xmlns="http://www.w3.org/2000/svg">
<path d="M64 2.56018C30.0672 2.56018 2.56001 30.0674 2.56001 64.0002C2.56001 97.933 30.0672 125.44 64 125.44C97.9328 125.44 125.44 97.933 125.44 64.0002C125.44 30.0674 97.9328 2.56018 64 2.56018ZM48.96 89.4658H36.5184V49.4274H48.96V89.4658ZM42.6624 44.5122C38.7328 44.5122 36.192 41.7282 36.192 38.285C36.192 34.7714 38.8096 32.0706 42.8224 32.0706C46.8352 32.0706 49.2928 34.7714 49.3696 38.285C49.3696 41.7282 46.8352 44.5122 42.6624 44.5122ZM94.4 89.4658H81.9584V67.277C81.9584 62.1122 80.1536 58.605 75.6544 58.605C72.2176 58.605 70.176 60.9794 69.2736 63.2642C68.9408 64.077 68.8576 65.229 68.8576 66.3746V89.4594H56.4096V62.1954C56.4096 57.197 56.2496 53.0178 56.0832 49.421H66.8928L67.4624 54.9826H67.712C69.3504 52.3714 73.3632 48.5186 80.0768 48.5186C88.2624 48.5186 94.4 54.0034 94.4 65.7922V89.4658V89.4658Z" fill="black"/>
</svg>
