<svg width="157" height="157" viewBox="0 0 157 157" fill="none" xmlns="http://www.w3.org/2000/svg">
<g clip-path="url(#clip0)">
<path d="M5.50764 79.7226C7.59011 78.6677 10.255 77.343 13.0776 76.0284C23.7194 71.0608 27.6191 70.2584 28.9997 70.2257C31.0716 70.1708 33.0679 70.7049 34.7769 71.7662L35.3683 72.133L46.2155 71.7963L45.5664 85.7366L35.7304 85.7735L35.1416 86.1773C33.491 87.3262 31.522 87.9581 29.4477 88.0155C28.0695 88.0457 24.132 87.4487 13.257 83.0265C10.3716 81.8519 7.63584 80.666 5.50764 79.7226Z" fill="#FFD773"/>
<path d="M48.6273 69.4258L35.9895 69.8151C33.9823 68.568 31.5524 67.8635 28.9391 67.9298C22.2631 68.0988 0.245406 79.8535 0.245406 79.8535C0.245406 79.8535 22.8251 90.4786 29.5085 90.3116C32.1145 90.2432 34.5106 89.4167 36.4541 88.0671L47.7574 88.0239L48.6273 69.4258ZM36.4382 83.4723L35.0069 83.48L33.8322 84.2946C32.5495 85.1837 31.0112 85.6762 29.3898 85.7171C28.8557 85.7306 25.5995 85.5625 14.1388 80.9047C13.0467 80.4575 11.9785 80.0145 10.9583 79.58C11.9576 79.0966 12.9996 78.5979 14.0657 78.103C25.2781 72.8683 28.5191 72.5332 29.0581 72.5243C30.6818 72.4809 32.2409 72.8972 33.5619 73.7202L34.7446 74.4537L36.1345 74.4114L43.8013 74.1695L43.3705 83.4448L36.4382 83.4723Z" fill="#F7BB42"/>
<path d="M44.4589 95.9791C45.8089 96.4292 47.1845 96.8523 48.5759 97.2489L80.4935 101.742C81.9612 101.755 83.4353 101.741 84.9089 101.709C85.7623 101.683 86.6159 101.656 87.4644 101.616C79.1573 110.208 66.179 115.909 51.47 116.285C46.5702 116.406 41.8365 115.932 37.3713 114.941C37.3401 114.934 37.1647 114.893 37.1647 114.893C36.2086 114.636 35.4924 113.773 35.4661 112.734C35.4598 112.388 35.5301 112.059 35.661 111.765C35.661 111.765 35.7672 111.536 35.8247 111.446L44.1074 95.8588C44.2256 95.9015 44.341 95.9367 44.4589 95.9791Z" fill="url(#paint0_linear)"/>
<path d="M86.2751 54.3787C85.4235 54.3835 84.5697 54.4005 83.7137 54.4196C82.2426 54.4592 80.7697 54.5203 79.307 54.6099C75.5311 51.9141 47.6506 60.711 47.6506 60.711C46.2833 61.1799 44.9333 61.67 43.6032 62.1879C43.4873 62.2315 43.3765 62.2795 43.2606 62.323L34.197 47.1728C34.1376 47.0883 34.0174 46.8623 34.0174 46.8623C33.8718 46.575 33.7871 46.2526 33.7759 45.9022C33.7496 44.8627 34.4213 43.9699 35.3655 43.6622C35.3655 43.6622 35.5336 43.6126 35.5669 43.607C39.9739 42.3882 44.675 41.6727 49.5772 41.5486C64.2934 41.1759 77.5434 46.2133 86.2751 54.3787Z" fill="url(#paint1_linear)"/>
<path d="M84.5112 52.9346C66.0728 53.4037 48.9921 57.7231 35.2484 64.5728C34.4902 64.9691 33.9805 65.7596 34.006 66.6729L34.6422 91.9806C34.67 92.8914 35.2167 93.6576 35.994 94.015C50.0691 100.162 67.3421 103.612 85.7805 103.142C114.426 102.422 139.512 92.5406 154.49 78.0176C154.937 77.5864 155.248 76.9367 155.233 76.2666C155.214 75.5919 154.873 74.9612 154.4 74.5485C138.706 60.8026 113.152 52.2091 84.5112 52.9346Z" fill="url(#paint2_linear)"/>
<path d="M90.5167 84.4027C88.737 82.7109 87.7249 80.427 87.6627 77.9758C87.603 75.5223 88.4982 73.1899 90.1901 71.4102C91.8819 69.6304 94.166 68.6182 96.6194 68.5536C99.0704 68.4915 101.408 69.3914 103.183 71.0786C104.962 72.7705 105.974 75.0543 106.041 77.5101C106.167 82.5772 102.149 86.8041 97.0847 86.9323C94.6288 86.9898 92.2965 86.0945 90.5216 84.4073C90.5167 84.4027 90.5167 84.4027 90.5167 84.4027Z" fill="#ADA0C3"/>
<path d="M62.9533 85.1009C61.1735 83.409 60.1591 81.1276 60.0992 78.674C60.037 76.2228 60.9346 73.8879 62.6242 72.1105C64.3161 70.3307 66.6023 69.3162 69.0559 69.2517C71.5069 69.1897 73.8393 70.0849 75.6191 71.7768C77.399 73.4688 78.411 75.7527 78.4781 78.2084C78.604 83.2754 74.5858 87.5024 69.5214 87.6307C67.063 87.6905 64.7332 86.7928 62.9533 85.1009Z" fill="#ADA0C4"/>
<path d="M129.447 94.0913L128.575 59.7683C138.706 63.4651 147.507 68.5127 154.4 74.5485C154.873 74.9612 155.214 75.5919 155.233 76.2666C155.248 76.9367 154.937 77.5864 154.49 78.0176C147.909 84.4019 139.375 89.884 129.447 94.0913Z" fill="url(#paint3_linear)"/>
</g>
<defs>
<linearGradient id="paint0_linear" x1="55.5" y1="99.5" x2="59" y2="115.5" gradientUnits="userSpaceOnUse">
<stop stop-color="#5B7EF7"/>
<stop offset="1" stop-color="#6100FF"/>
</linearGradient>
<linearGradient id="paint1_linear" x1="53.5" y1="43" x2="56" y2="57" gradientUnits="userSpaceOnUse">
<stop stop-color="#5B7EF7"/>
<stop offset="1" stop-color="#6100FF"/>
</linearGradient>
<linearGradient id="paint2_linear" x1="121.46" y1="43.2327" x2="55.445" y2="112.679" gradientUnits="userSpaceOnUse">
<stop stop-color="white"/>
<stop offset="1" stop-color="#FFECFF"/>
</linearGradient>
<linearGradient id="paint3_linear" x1="134" y1="62" x2="139" y2="86" gradientUnits="userSpaceOnUse">
<stop stop-color="#5B7EF7"/>
<stop offset="1" stop-color="#6100FF"/>
</linearGradient>
<clipPath id="clip0">
<rect width="110.532" height="110.532" fill="white" transform="translate(76.1536) rotate(43.5491)"/>
</clipPath>
</defs>
</svg>
