<?xml version="1.0" encoding="iso-8859-1"?>
<!-- Generator: Adobe Illustrator 19.0.0, SVG Export Plug-In . SVG Version: 6.00 Build 0)  -->
<svg version="1.1" id="Capa_1" xmlns="http://www.w3.org/2000/svg" xmlns:xlink="http://www.w3.org/1999/xlink" x="0px" y="0px"
	 viewBox="0 0 512.001 512.001" style="enable-background:new 0 0 512.001 512.001;" xml:space="preserve">
<g>
	<path style="fill:none;" d="M169.958,449.355c6.325,4.194,13.902,6.645,22.043,6.645c0.811,0,1.615-0.032,2.414-0.08l-6.555-24.467
		L169.958,449.355z"/>
	<polygon style="fill:none;" points="180.689,404.688 179.433,400 163.191,400 	"/>
	<path style="fill:none;" d="M209.866,451.773c7.728-3.876,14.031-10.179,17.907-17.907l-24.461-6.553L209.866,451.773z"/>
	<path style="fill:none;" d="M301.525,400h-18.195c-1.119,2.563-1.973,5.239-2.531,8h25.344L301.525,400z"/>
	<path style="fill:none;" d="M333.858,408h25.344c-0.558-2.761-1.411-5.437-2.531-8h-18.195L333.858,408z"/>
	<path style="fill:none;" d="M207.454,411.859l24.467,6.555c0.048-0.799,0.08-1.603,0.08-2.414c0-5.687-1.201-11.097-3.35-16h-9.337
		L207.454,411.859z"/>
	<path style="fill:none;" d="M346.521,445.935c0.599-0.532,1.19-1.078,1.761-1.649c5.632-5.633,9.377-12.651,10.92-20.285h-25.344
		L346.521,445.935z"/>
	<path style="fill:none;" d="M152.08,413.586c-0.048,0.8-0.08,1.603-0.08,2.414c0,8.141,2.451,15.717,6.645,22.042l17.902-17.902
		L152.08,413.586z"/>
	<path style="fill:none;" d="M103.202,408c-1.543-7.634-5.287-14.653-10.92-20.285c-0.572-0.572-1.162-1.117-1.761-1.649L77.858,408
		H103.202z"/>
	<path style="fill:none;" d="M90.521,445.935c0.599-0.532,1.19-1.078,1.761-1.649c5.632-5.633,9.377-12.651,10.92-20.285H77.858
		L90.521,445.935z"/>
	<polygon style="fill:none;" points="196.142,400.547 196.688,400 195.995,400 	"/>
	<path style="fill:none;" d="M37.481,386.066c-0.599,0.532-1.19,1.078-1.761,1.649c-5.632,5.632-9.377,12.651-10.92,20.285h25.344
		L37.481,386.066z"/>
	<path style="fill:none;" d="M64.001,432.004l-12.669,21.945c4.033,1.343,8.296,2.051,12.669,2.051s8.636-0.709,12.669-2.051
		L64.001,432.004z"/>
	<path style="fill:none;" d="M24.8,424c1.543,7.634,5.287,14.653,10.92,20.285c0.572,0.572,1.162,1.117,1.761,1.649L50.144,424H24.8
		z"/>
	<path style="fill:none;" d="M50.079,267.766l-1.991,3.185l16.481,16.482l0,0l20.433,20.435c3.625,3.621,5.305,8.809,4.484,13.871
		c-0.82,5.066-4.055,9.457-8.641,11.754l-32.844,16.422v12.401c5.128-1.521,10.503-2.315,16-2.315c10.343,0,20.25,2.787,28.877,8
		h20.15L84.14,264H56.868C54.095,264,51.556,265.41,50.079,267.766z"/>
	<path style="fill:none;" d="M76.67,378.051C72.637,376.709,68.374,376,64.001,376c-4.373,0-8.636,0.708-12.669,2.051l12.669,21.945
		L76.67,378.051z"/>
	<path style="fill:none;" d="M280.8,424c1.543,7.634,5.287,14.653,10.92,20.285c0.572,0.572,1.162,1.117,1.761,1.649L306.144,424
		H280.8z"/>
	<path style="fill:none;" d="M465.866,451.773c7.728-3.876,14.031-10.179,17.907-17.907l-24.461-6.553L465.866,451.773z"/>
	<path style="fill:none;" d="M430.135,380.228c-7.728,3.875-14.031,10.179-17.907,17.907l24.461,6.553L430.135,380.228z"/>
	<path style="fill:none;" d="M408.08,413.586c-0.048,0.8-0.08,1.603-0.08,2.414c0,8.141,2.451,15.717,6.645,22.042l17.902-17.902
		L408.08,413.586z"/>
	<path style="fill:none;" d="M425.958,449.355c6.325,4.194,13.902,6.645,22.043,6.645c0.811,0,1.615-0.032,2.414-0.08l-6.555-24.467
		L425.958,449.355z"/>
	<path style="fill:none;" d="M487.921,418.414c0.048-0.799,0.08-1.603,0.08-2.414c0-8.141-2.451-15.718-6.645-22.043l-17.902,17.902
		L487.921,418.414z"/>
	<path style="fill:none;" d="M452.142,400.547l17.902-17.902c-6.325-4.194-13.902-6.645-22.043-6.645
		c-0.811,0-1.615,0.032-2.414,0.08L452.142,400.547z"/>
	<path style="fill:none;" d="M320.001,432.004l-12.669,21.945c4.033,1.343,8.296,2.051,12.669,2.051s8.636-0.709,12.669-2.051
		L320.001,432.004z"/>
	<path style="fill:#888693;" d="M48.001,349.914l-2.484,1.242c-1.141,0.566-2.359,0.844-3.578,0.844
		c-2.07,0-4.117-0.809-5.656-2.344l-4.281-4.282V368c0,0.65,0.086,1.279,0.232,1.885c4.846-3.354,10.155-5.905,15.768-7.57V349.914z
		"/>
	<path style="fill:#888693;" d="M48.088,270.951l1.991-3.185c1.477-2.355,4.016-3.766,6.789-3.766H84.14l-3.802-13.688
		c-0.261-0.769-0.547-1.541-0.849-2.312h-22.62c-8.32,0-15.93,4.215-20.352,11.281l-1.955,3.129c3.575,0.395,6.977,1.99,9.572,4.586
		L48.088,270.951z"/>
	<path style="fill:#5C546A;" d="M415.907,307.407l93.75-93.75c1.5-1.5,2.344-3.535,2.344-5.656s-0.844-4.156-2.344-5.656
		l-16.016-16.012c-0.065-0.065-0.135-0.12-0.201-0.182c-0.702,2.623-2.068,5.105-4.126,7.163l0,0c-2.06,2.06-4.544,3.426-7.17,4.127
		c0.063,0.067,0.119,0.138,0.184,0.204L492.688,208l-68.221,68.221l-8.697,31.309C415.815,307.488,415.863,307.451,415.907,307.407z
		"/>
	<path style="fill:#888693;" d="M136.001,160h-8h-8v28.591c5.247-1.722,10.579-3.346,16-4.859V160z"/>
	<path style="fill:#B6B8BE;" d="M80.29,250.141c-0.195-0.707-0.086-1.423-0.085-2.141h7.796h144
		c0,10.493,6.737,19.408,16.119,22.669c-0.073,0.434-0.119,0.876-0.119,1.331v16c0,4.418,3.578,8,8,8s8-3.582,8-8v-16
		c0-0.454-0.047-0.897-0.119-1.331c9.382-3.261,16.119-12.176,16.119-22.669h151.797c0,0.717,0.109,1.434-0.086,2.141l-0.047,0.171
		c3.014-8.897,8.851-18.312,16.337-18.312h-112h-16h-56h-16h-56h-16h-112c6.838,0,12.296,7.858,15.488,16
		c0.302,0.771,0.588,1.542,0.849,2.312L80.29,250.141z"/>
	<path style="fill:#D5D9DE;" d="M424.467,276.222l7.197-25.91l0.047-0.171c0.195-0.707,0.086-1.423,0.086-2.141H280.001
		c0,10.493-6.737,19.408-16.119,22.669c0.073,0.434,0.119,0.876,0.119,1.331v16c0,4.418-3.578,8-8,8s-8-3.582-8-8v-16
		c0-0.454,0.047-0.897,0.119-1.331c-9.382-3.262-16.119-12.176-16.119-22.669h-144h-7.796c-0.001,0.717-0.109,1.434,0.085,2.141
		l0.047,0.171L84.14,264l28.889,104h0l-4.444-16h294.832l-4.444,16h0l16.797-60.47L424.467,276.222z"/>
	<path style="fill:#B6B8BE;" d="M356.671,400c-1.976-4.525-4.793-8.689-8.389-12.285c-0.572-0.572-1.162-1.117-1.761-1.649
		L338.476,400H356.671z"/>
	<path style="fill:#B6B8BE;" d="M332.67,378.051c-4.033-1.343-8.296-2.051-12.669-2.051s-8.636,0.708-12.669,2.051l12.669,21.945
		L332.67,378.051z"/>
	<path style="fill:#B6B8BE;" d="M179.433,400l-5.297-19.772c-7.728,3.875-14.031,10.179-17.907,17.907l6.962,1.865H179.433z"/>
	<path style="fill:#B6B8BE;" d="M219.313,400h9.337c-0.927-2.115-2.03-4.136-3.294-6.043L219.313,400z"/>
	<path style="fill:#B6B8BE;" d="M293.481,386.066c-0.599,0.532-1.19,1.078-1.761,1.649c-3.596,3.596-6.413,7.76-8.389,12.285h18.195
		L293.481,386.066z"/>
	<path style="fill:#B6B8BE;" d="M196.688,400l17.355-17.355c-6.325-4.194-13.902-6.645-22.043-6.645
		c-0.811,0-1.615,0.032-2.414,0.08l6.409,23.92H196.688z"/>
	<path style="fill:#B6B8BE;" d="M384.001,376c0-4.418,3.578-8,8-8h6.972l4.444-16H108.584l4.444,16h6.972c4.422,0,8,3.582,8,8
		s-3.578,8-8,8h-1.46c4.357,7.515,11.639,12.982,20.084,15.066C145.82,376.44,167.026,360,192.001,360
		c25.316,0,46.755,16.895,53.658,40h20.657c2.618-8.822,7.401-16.908,14.091-23.598C290.985,365.825,305.048,360,320.001,360
		c14.961,0,29.016,5.824,39.594,16.402c6.452,6.452,11.125,14.204,13.798,22.66c8.439-2.087,15.714-7.552,20.068-15.063h-1.46
		C387.579,384,384.001,380.418,384.001,376z"/>
	<path style="fill:#888693;" d="M128.001,376c0-4.418-3.578-8-8-8h-6.972h0h-20.15c3.852,2.328,7.451,5.137,10.716,8.402
		c2.365,2.365,4.479,4.913,6.357,7.598h8.589h1.46C124.423,384,128.001,380.418,128.001,376z"/>
	<path style="fill:#888693;" d="M392.001,368c-4.422,0-8,3.582-8,8s3.578,8,8,8h1.46h8.624c4.364-6.242,9.961-11.558,16.442-15.587
		c-0.795-0.264-1.642-0.413-2.527-0.413h-17.028h0H392.001z"/>
	<g>
		<path style="fill:#5C546A;" d="M264.001,232h56v-59.73c-18.169-2.471-36.904-3.89-56-4.2V232z"/>
		<path style="fill:#5C546A;" d="M455.36,217.149c-33.515-20.198-74.432-34.601-119.359-42.4V232h112h3.227
			c3.594,0,6.742-2.395,7.711-5.855C459.899,222.68,458.43,219.004,455.36,217.149z"/>
	</g>
	<g>
		<path style="fill:#5C546A;" d="M120.001,188.591c-23.074,7.573-44.405,17.135-63.359,28.558c-3.07,1.855-4.539,5.531-3.578,8.996
			c0.969,3.461,4.117,5.855,7.711,5.855h3.227h112v-57.244c-13.738,2.386-27.109,5.377-40,8.975
			C130.58,185.245,125.248,186.869,120.001,188.591z"/>
		<path style="fill:#5C546A;" d="M192.001,172.278V232h56v-63.935C228.903,168.375,210.17,169.804,192.001,172.278z"/>
	</g>
	<path style="fill:#FFCF00;" d="M128.001,160h8h8c2.375,0,4.625-1.055,6.141-2.875c1.523-1.82,2.156-4.223,1.727-6.555l-16-88
		c-0.688-3.805-4-6.57-7.867-6.57V160z"/>
	
		<rect x="388.001" y="96.687" transform="matrix(0.7071 -0.7071 0.7071 0.7071 45.2736 309.303)" style="fill:#FF9300;" width="15.998" height="6.629"/>
	
		<rect x="372.001" y="80.686" transform="matrix(0.7071 -0.7071 0.7071 0.7071 51.902 293.3041)" style="fill:#FF9300;" width="15.998" height="6.629"/>
	
		<rect x="356.001" y="64.686" transform="matrix(0.7071 -0.7071 0.7071 0.7071 58.5296 277.3042)" style="fill:#FF9300;" width="15.998" height="6.629"/>
	
		<rect x="404" y="112.687" transform="matrix(0.7071 -0.7071 0.7071 0.7071 38.6465 325.3037)" style="fill:#FF9300;" width="15.998" height="6.629"/>
	
		<rect x="420" y="128.687" transform="matrix(0.7071 -0.7071 0.7071 0.7071 32.0187 341.3036)" style="fill:#FF9300;" width="15.998" height="6.629"/>
	
		<rect x="438" y="143.859" transform="matrix(0.7071 -0.7071 0.7071 0.7071 24.5625 359.3035)" style="fill:#FF9300;" width="15.998" height="12.286"/>
	<path style="fill:#5C546A;" d="M472.626,154.001l0.343,0.343l4.688-4.688c3.125-3.125,3.125-8.188,0-11.313s-8.188-3.125-11.313,0
		l-10.346,10.346l-11.313,11.313l-10.342,10.342c-3.125,3.125-3.125,8.188,0,11.313c1.563,1.563,3.609,2.344,5.656,2.344
		s4.094-0.781,5.656-2.344l4.688-4.688l-0.343-0.343L472.626,154.001z"/>
	<path style="fill:#888693;" d="M489.314,193.314c2.058-2.058,3.424-4.54,4.126-7.163c1.429-5.34,0.064-11.272-4.126-15.462
		l-16.345-16.345l-0.343-0.343l-22.625,22.625l0.343,0.343l16.345,16.345c4.188,4.188,10.117,5.554,15.455,4.127
		C484.77,196.74,487.254,195.373,489.314,193.314L489.314,193.314z"/>
	<path style="fill:#FFCF00;" d="M453.657,133.657c3.125-3.125,3.125-8.188,0-11.313s-8.188-3.125-11.313,0l-6.345,6.345
		l-11.313,11.313l-6.342,6.342c-3.125,3.125-3.125,8.188,0,11.313c1.563,1.563,3.609,2.344,5.656,2.344
		c2.047,0,4.094-0.781,5.656-2.344l6.342-6.342l11.313-11.313L453.657,133.657z"/>
	<path style="fill:#FFCF00;" d="M437.657,117.657c3.125-3.125,3.125-8.188,0-11.313s-8.188-3.125-11.313,0L420,112.689
		l-11.313,11.313l-6.343,6.343c-3.125,3.125-3.125,8.188,0,11.313c1.563,1.563,3.609,2.344,5.656,2.344s4.094-0.781,5.656-2.344
		l6.342-6.342l11.313-11.313L437.657,117.657z"/>
	<path style="fill:#FFCF00;" d="M421.657,101.657c3.125-3.125,3.125-8.188,0-11.313c-3.125-3.125-8.188-3.125-11.313,0L404,96.689
		l-11.313,11.313l-6.343,6.343c-3.125,3.125-3.125,8.188,0,11.313c1.563,1.563,3.609,2.344,5.656,2.344s4.094-0.781,5.656-2.344
		l6.343-6.343l11.313-11.313L421.657,101.657z"/>
	<path style="fill:#FFCF00;" d="M405.657,85.657c3.125-3.125,3.125-8.188,0-11.313s-8.188-3.125-11.313,0L388,80.688l-11.313,11.313
		l-6.343,6.343c-3.125,3.125-3.125,8.188,0,11.313c1.563,1.563,3.609,2.344,5.656,2.344s4.094-0.781,5.656-2.344l6.343-6.343
		l11.313-11.313L405.657,85.657z"/>
	<path style="fill:#FFCF00;" d="M389.657,69.657c3.125-3.125,3.125-8.187,0-11.312s-8.188-3.125-11.313,0l-6.344,6.344
		l-11.313,11.313l-6.344,6.344c-3.125,3.125-3.125,8.188,0,11.313c1.563,1.563,3.609,2.344,5.656,2.344s4.094-0.781,5.656-2.344
		L372,87.313l11.313-11.313L389.657,69.657z"/>
	<path style="fill:#FFCF00;" d="M373.657,53.657c3.125-3.125,3.125-8.188,0-11.313s-8.188-3.125-11.313,0l-24,24
		c-3.125,3.125-3.125,8.188,0,11.313c1.563,1.563,3.609,2.344,5.656,2.344s4.094-0.781,5.656-2.344l6.344-6.344l11.313-11.312
		L373.657,53.657z"/>
	<path style="fill:#D5D9DE;" d="M48.088,270.951l-3.954-3.954c-2.596-2.596-5.997-4.191-9.572-4.586
		c-1.418-0.157-2.862-0.131-4.295,0.106c-5.063,0.82-9.461,4.047-11.758,8.637L0.845,306.481c-1.539,3.082-0.938,6.801,1.5,9.234
		l16.97,16.972l45.254-45.254L48.088,270.951z"/>
	<path style="fill:#888693;" d="M76.67,453.949c5.071-1.688,9.773-4.391,13.851-8.014L77.858,424h25.344
		c0.526-2.605,0.799-5.282,0.799-8c0-2.719-0.273-5.395-0.799-8H77.858l12.663-21.935c-4.078-3.623-8.78-6.326-13.851-8.014
		l-12.669,21.945l-12.669-21.945c-5.071,1.688-9.773,4.391-13.851,8.014L50.144,408H24.8c-0.526,2.605-0.799,5.281-0.799,8
		c0,2.718,0.273,5.395,0.799,8h25.344l-12.663,21.935c4.078,3.623,8.78,6.326,13.851,8.014l12.669-21.945L76.67,453.949z"/>
	<path style="fill:#5C546A;" d="M92.878,368c-8.627-5.213-18.535-8-28.877-8c-5.497,0-10.872,0.794-16,2.315
		c-5.613,1.665-10.921,4.216-15.768,7.57c-2.769,1.917-5.394,4.085-7.826,6.518C13.829,386.981,8.001,401.043,8.001,416
		s5.828,29.02,16.406,39.598S49.04,472,64.001,472c14.961,0,29.016-5.824,39.594-16.402s16.406-24.641,16.406-39.598
		c0-11.613-3.527-22.678-10.049-32c-1.878-2.685-3.992-5.232-6.357-7.598C100.329,373.137,96.731,370.328,92.878,368z
		 M51.332,453.949c-5.071-1.688-9.773-4.391-13.851-8.014c-0.599-0.532-1.19-1.078-1.761-1.649
		c-5.632-5.633-9.377-12.651-10.92-20.285c-0.526-2.605-0.799-5.282-0.799-8c0-2.719,0.273-5.395,0.799-8
		c1.543-7.634,5.287-14.653,10.92-20.285c0.572-0.572,1.162-1.117,1.761-1.649c4.078-3.623,8.78-6.326,13.851-8.014
		c4.033-1.343,8.296-2.051,12.669-2.051c4.373,0,8.636,0.708,12.669,2.051c5.071,1.688,9.773,4.391,13.851,8.014
		c0.599,0.532,1.19,1.078,1.761,1.649c5.632,5.632,9.377,12.651,10.92,20.285c0.526,2.605,0.799,5.281,0.799,8
		c0,2.718-0.273,5.395-0.799,8c-1.543,7.634-5.287,14.653-10.92,20.285c-0.572,0.572-1.162,1.117-1.761,1.649
		c-4.078,3.623-8.78,6.326-13.851,8.014C72.637,455.292,68.374,456,64.001,456S55.365,455.292,51.332,453.949z"/>
	<path style="fill:#888693;" d="M332.67,453.949c5.071-1.688,9.773-4.391,13.851-8.014L333.858,424h25.344
		c0.526-2.605,0.799-5.282,0.799-8c0-2.719-0.273-5.395-0.799-8h-25.344l4.618-8l8.044-13.935c-4.078-3.623-8.78-6.326-13.851-8.014
		l-12.669,21.945l-12.669-21.945c-5.071,1.688-9.773,4.391-13.851,8.014L301.525,400l4.618,8H280.8
		c-0.526,2.605-0.799,5.281-0.799,8c0,2.718,0.273,5.395,0.799,8h25.344l-12.663,21.935c4.078,3.623,8.78,6.326,13.851,8.014
		l12.669-21.945L332.67,453.949z"/>
	<path style="fill:#5C546A;" d="M320.001,360c-14.953,0-29.016,5.824-39.594,16.402c-6.69,6.69-11.473,14.776-14.091,23.598
		c-1.521,5.127-2.315,10.502-2.315,16c0,14.957,5.828,29.02,16.406,39.598S305.04,472,320.001,472
		c14.961,0,29.016-5.824,39.594-16.402s16.406-24.641,16.406-39.598c0-5.834-0.898-11.529-2.608-16.937
		c-2.673-8.457-7.346-16.209-13.798-22.66C349.016,365.825,334.962,360,320.001,360z M307.332,453.949
		c-5.071-1.688-9.773-4.391-13.851-8.014c-0.599-0.532-1.19-1.078-1.761-1.649c-5.632-5.633-9.377-12.651-10.92-20.285
		c-0.526-2.605-0.799-5.282-0.799-8c0-2.719,0.273-5.395,0.799-8c0.558-2.761,1.411-5.437,2.531-8
		c1.976-4.525,4.793-8.689,8.389-12.285c0.572-0.572,1.162-1.117,1.761-1.649c4.078-3.623,8.78-6.326,13.851-8.014
		c4.033-1.343,8.296-2.051,12.669-2.051s8.636,0.708,12.669,2.051c5.071,1.688,9.773,4.391,13.851,8.014
		c0.599,0.532,1.19,1.078,1.761,1.649c3.596,3.596,6.413,7.76,8.389,12.285c1.119,2.563,1.973,5.239,2.531,8
		c0.526,2.605,0.799,5.281,0.799,8c0,2.718-0.273,5.395-0.799,8c-1.543,7.634-5.287,14.653-10.92,20.285
		c-0.572,0.572-1.162,1.117-1.761,1.649c-4.078,3.623-8.78,6.326-13.851,8.014c-4.033,1.343-8.296,2.051-12.669,2.051
		S311.365,455.292,307.332,453.949z"/>
	<path style="fill:#888693;" d="M219.313,400l6.043-6.043c-2.974-4.486-6.827-8.338-11.313-11.313L196.688,400l-0.547,0.546
		L195.995,400l-6.409-23.92c-5.526,0.331-10.75,1.79-15.451,4.148L179.433,400l1.256,4.688L163.191,400l-6.962-1.865
		c-2.358,4.701-3.817,9.926-4.148,15.451l24.467,6.555l-17.902,17.902c2.974,4.486,6.827,8.338,11.313,11.313l17.902-17.902
		l6.555,24.467c5.526-0.331,10.75-1.79,15.451-4.148l-6.553-24.461l24.461,6.553c2.358-4.701,3.817-9.925,4.148-15.451
		l-24.467-6.555L219.313,400z"/>
	<path style="fill:#5C546A;" d="M192.001,360c-24.975,0-46.181,16.44-53.376,39.066c-1.7,5.345-2.624,11.033-2.624,16.934
		c0,30.879,25.125,56,56,56c30.875,0,56-25.121,56-56c0-5.559-0.826-10.927-2.342-16C238.756,376.895,217.317,360,192.001,360z
		 M232.001,416c0,0.811-0.032,1.615-0.08,2.414c-0.331,5.526-1.79,10.75-4.148,15.451c-3.876,7.728-10.179,14.031-17.907,17.907
		c-4.701,2.358-9.925,3.817-15.451,4.148c-0.799,0.048-1.603,0.08-2.414,0.08c-8.141,0-15.717-2.451-22.043-6.645
		c-4.486-2.974-8.338-6.827-11.313-11.313c-4.194-6.325-6.645-13.902-6.645-22.042c0-0.811,0.032-1.615,0.08-2.414
		c0.331-5.526,1.79-10.75,4.148-15.451c3.876-7.728,10.179-14.031,17.907-17.907c4.701-2.358,9.925-3.817,15.451-4.148
		c0.799-0.048,1.603-0.08,2.414-0.08c8.141,0,15.717,2.451,22.043,6.645c4.486,2.974,8.338,6.827,11.313,11.313
		c1.264,1.906,2.367,3.927,3.294,6.043C230.8,404.904,232.001,410.313,232.001,416z"/>
	<path style="fill:#888693;" d="M445.586,376.08c-5.526,0.331-10.75,1.79-15.451,4.148l6.553,24.46l-24.461-6.553
		c-2.358,4.701-3.817,9.926-4.148,15.451l24.467,6.555l-17.902,17.902c2.974,4.486,6.827,8.338,11.313,11.313l17.902-17.902
		l6.555,24.467c5.526-0.331,10.75-1.79,15.451-4.148l-6.553-24.461l24.461,6.553c2.358-4.701,3.817-9.925,4.148-15.451
		l-24.467-6.555l17.902-17.902c-2.974-4.486-6.827-8.338-11.313-11.313l-17.902,17.902L445.586,376.08z"/>
	<path style="fill:#5C546A;" d="M402.085,384c-6.346,9.078-10.084,20.108-10.084,32c0,30.879,25.125,56,56,56
		c30.875,0,56-25.121,56-56s-25.125-56-56-56c-10.808,0-20.906,3.087-29.473,8.413C412.046,372.443,406.449,377.758,402.085,384z
		 M470.043,382.645c4.486,2.974,8.338,6.827,11.313,11.313c4.194,6.325,6.645,13.902,6.645,22.043c0,0.811-0.032,1.615-0.08,2.414
		c-0.331,5.526-1.79,10.75-4.148,15.451c-3.876,7.728-10.179,14.031-17.907,17.907c-4.701,2.358-9.925,3.817-15.451,4.148
		c-0.799,0.048-1.603,0.08-2.414,0.08c-8.141,0-15.717-2.451-22.043-6.645c-4.486-2.974-8.338-6.827-11.313-11.313
		c-4.194-6.325-6.645-13.902-6.645-22.042c0-0.811,0.032-1.615,0.08-2.414c0.331-5.526,1.79-10.75,4.148-15.451
		c3.876-7.728,10.179-14.031,17.907-17.907c4.701-2.358,9.925-3.817,15.451-4.148c0.799-0.048,1.603-0.08,2.414-0.08
		C456.141,376,463.718,378.451,470.043,382.645z"/>
	<path style="fill:#888693;" d="M192.001,172.438c-5.367,0.731-10.737,1.458-16,2.372V232h16V172.438z"/>
	<path style="fill:#888693;" d="M248.001,232h16v-63.77c-2.678-0.043-5.308-0.23-8-0.23s-5.322,0.187-8,0.23V232z"/>
	<path style="fill:#888693;" d="M336.001,174.81c-5.263-0.914-10.633-1.64-16-2.372V232h16V174.81z"/>
	<path style="fill:#FF9300;" d="M128.001,56c-3.867,0-7.18,2.766-7.867,6.57l-16,88c-0.43,2.332,0.203,4.734,1.727,6.555
		c1.516,1.82,3.766,2.875,6.141,2.875h8h8V56z"/>
	<path style="fill:#B6B8BE;" d="M41.938,352c1.219,0,2.438-0.277,3.578-0.844l2.484-1.242l32.844-16.422
		c4.586-2.297,7.82-6.688,8.641-11.754c0.82-5.063-0.859-10.25-4.484-13.871l-20.433-20.435l0,0l-45.254,45.254l0,0l12.687,12.688
		l4.281,4.282C37.821,351.192,39.868,352,41.938,352z"/>
</g>
<g>
</g>
<g>
</g>
<g>
</g>
<g>
</g>
<g>
</g>
<g>
</g>
<g>
</g>
<g>
</g>
<g>
</g>
<g>
</g>
<g>
</g>
<g>
</g>
<g>
</g>
<g>
</g>
<g>
</g>
</svg>
