<svg version="1.1" viewBox="0.0 0.0 653.1837270341207 20.0" fill="none" stroke="none" stroke-linecap="square" stroke-miterlimit="10" xmlns:xlink="http://www.w3.org/1999/xlink" xmlns="http://www.w3.org/2000/svg"><clipPath id="p.0"><path d="m0 0l653.1837 0l0 100.0l-653.1837 0l0 -100.0z" clip-rule="nonzero"/></clipPath><g clip-path="url(#14dbe7p.0)"><path fill="#14dbe714dbe7" fill-opacity="0.0" d="m0 0l653.1837 0l0 100.0l-653.1837 0z" fill-rule="evenodd"/><path fill="#14dbe7" fill-opacity="0.0" d="m0 10.220472l645.7323 -2.1417322" fill-rule="evenodd"/><path stroke="#14dbe7" stroke-width="4.0" stroke-linejoin="round" stroke-linecap="butt" d="m0 10.220472l645.7323 -2.1417322" fill-rule="evenodd"/><path fill="#14dbe7" d="m0 9.149607l0 0c0 -5.0531883 4.0964184 -9.149607 9.149607 -9.149607l0 0c2.4266262 0 4.7538643 0.9639736 6.4697485 2.6798577c1.7158842 1.7158837 2.6798582 4.0431223 2.6798582 6.469749l0 0c0 5.0531874 -4.0964193 9.149607 -9.149607 9.149607l0 0c-5.0531883 0 -9.149607 -4.0964193 -9.149607 -9.149607z" fill-rule="evenodd"/><path stroke="#14dbe7" stroke-width="1.0" stroke-linejoin="round" stroke-linecap="butt" d="m0 9.149607l0 0c0 -5.0531883 4.0964184 -9.149607 9.149607 -9.149607l0 0c2.4266262 0 4.7538643 0.9639736 6.4697485 2.6798577c1.7158842 1.7158837 2.6798582 4.0431223 2.6798582 6.469749l0 0c0 5.0531874 -4.0964193 9.149607 -9.149607 9.149607l0 0c-5.0531883 0 -9.149607 -4.0964193 -9.149607 -9.149607z" fill-rule="evenodd"/><path fill="#14dbe7" d="m633.75854 9.149607l0 0c0 -5.0531883 4.0963745 -9.149607 9.149597 -9.149607l0 0c2.4266357 0 4.753845 0.9639736 6.4697266 2.6798577c1.7158813 1.7158837 2.6798706 4.0431223 2.6798706 6.469749l0 0c0 5.0531874 -4.0964355 9.149607 -9.149597 9.149607l0 0c-5.0532227 0 -9.149597 -4.0964193 -9.149597 -9.149607z" fill-rule="evenodd"/><path stroke="#14dbe7" stroke-width="1.0" stroke-linejoin="round" stroke-linecap="butt" d="m633.75854 9.149607l0 0c0 -5.0531883 4.0963745 -9.149607 9.149597 -9.149607l0 0c2.4266357 0 4.753845 0.9639736 6.4697266 2.6798577c1.7158813 1.7158837 2.6798706 4.0431223 2.6798706 6.469749l0 0c0 5.0531874 -4.0964355 9.149607 -9.149597 9.149607l0 0c-5.0532227 0 -9.149597 -4.0964193 -9.149597 -9.149607z" fill-rule="evenodd"/><path fill="#14dbe7" d="m468.37534 9.149607l0 0c0 -5.0531883 4.096405 -9.149607 9.149597 -9.149607l0 0c2.4266357 0 4.7538757 0.9639736 6.469757 2.6798577c1.7158813 1.7158837 2.67984 4.0431223 2.67984 6.469749l0 0c0 5.0531874 -4.096405 9.149607 -9.149597 9.149607l0 0c-5.053192 0 -9.149597 -4.0964193 -9.149597 -9.149607z" fill-rule="evenodd"/><path stroke="#14dbe7" stroke-width="1.0" stroke-linejoin="round" stroke-linecap="butt" d="m468.37534 9.149607l0 0c0 -5.0531883 4.096405 -9.149607 9.149597 -9.149607l0 0c2.4266357 0 4.7538757 0.9639736 6.469757 2.6798577c1.7158813 1.7158837 2.67984 4.0431223 2.67984 6.469749l0 0c0 5.0531874 -4.096405 9.149607 -9.149597 9.149607l0 0c-5.053192 0 -9.149597 -4.0964193 -9.149597 -9.149607z" fill-rule="evenodd"/><path fill="#14dbe7" d="m150.38583 9.149607l0 0c0 -5.0531883 4.096405 -9.149607 9.149597 -9.149607l0 0c2.4266357 0 4.7538605 0.9639736 6.469757 2.6798577c1.7158813 1.7158837 2.6798553 4.0431223 2.6798553 6.469749l0 0c0 5.0531874 -4.0964203 9.149607 -9.149612 9.149607l0 0c-5.053192 0 -9.149597 -4.0964193 -9.149597 -9.149607z" fill-rule="evenodd"/><path stroke="#14dbe7" stroke-width="1.0" stroke-linejoin="round" stroke-linecap="butt" d="m150.38583 9.149607l0 0c0 -5.0531883 4.096405 -9.149607 9.149597 -9.149607l0 0c2.4266357 0 4.7538605 0.9639736 6.469757 2.6798577c1.7158813 1.7158837 2.6798553 4.0431223 2.6798553 6.469749l0 0c0 5.0531874 -4.0964203 9.149607 -9.149612 9.149607l0 0c-5.053192 0 -9.149597 -4.0964193 -9.149597 -9.149607z" fill-rule="evenodd"/><path fill="#14dbe7" d="m309.38058 9.149607l0 0c0 -5.0531883 4.096405 -9.149607 9.149597 -9.149607l0 0c2.4266357 0 4.7538757 0.9639736 6.469757 2.6798577c1.7158813 1.7158837 2.67984 4.0431223 2.67984 6.469749l0 0c0 5.0531874 -4.096405 9.149607 -9.149597 9.149607l0 0c-5.053192 0 -9.149597 -4.0964193 -9.149597 -9.149607z" fill-rule="evenodd"/><path stroke="#14dbe7" stroke-width="1.0" stroke-linejoin="round" stroke-linecap="butt" d="m309.38058 9.149607l0 0c0 -5.0531883 4.096405 -9.149607 9.149597 -9.149607l0 0c2.4266357 0 4.7538757 0.9639736 6.469757 2.6798577c1.7158813 1.7158837 2.67984 4.0431223 2.67984 6.469749l0 0c0 5.0531874 -4.096405 9.149607 -9.149597 9.149607l0 0c-5.053192 0 -9.149597 -4.0964193 -9.149597 -9.149607z" fill-rule="evenodd"/></g></svg>