<svg version="1.1" viewBox="0.0 0.0 78 78" fill="none" stroke="none" stroke-linecap="square" stroke-miterlimit="10" xmlns:xlink="http://www.w3.org/1999/xlink" xmlns="http://www.w3.org/2000/svg"><clipPath id="p.0"><path d="m0 0l248.06299 0l0 112.79527l-248.06299 0l0 -112.79527z" clip-rule="nonzero"/></clipPath><g clip-path="url(#p.0)"><path fill="#000000" fill-opacity="0.0" d="m0 0l248.06299 0l0 112.79527l-248.06299 0z" fill-rule="evenodd"/><defs><radialGradient id="p.1" gradientUnits="userSpaceOnUse" gradientTransform="matrix(10.46349039831436 0.0 0.0 10.46349039831436 0.0 0.0)" spreadMethod="pad" cx="-8.972231669449745E-16" cy="0.0" fx="-8.972231669449745E-16" fy="0.0" r="10.46349048614502"><stop offset="0.0" stop-color="#ff53c3"/><stop offset="1.0" stop-color="#626ebf"/></radialGradient></defs><path fill="url(#p.1)" d="m0 38.70866l0 0c0 -21.378202 17.330458 -38.70866 38.70866 -38.70866l0 0c10.266178 0 20.111877 4.0782223 27.371159 11.337504c7.259285 7.259282 11.337502 17.10498 11.337502 27.371155l0 0c0 21.378204 -17.330456 38.70866 -38.70866 38.70866l0 0c-21.378202 0 -38.70866 -17.330456 -38.70866 -38.70866z" fill-rule="evenodd"/></g></svg>