<?xml version="1.0" encoding="iso-8859-1"?>
<!-- Generator: Adobe Illustrator 19.0.0, SVG Export Plug-In . SVG Version: 6.00 Build 0)  -->
<svg version="1.1" id="Layer_1" xmlns="http://www.w3.org/2000/svg" xmlns:xlink="http://www.w3.org/1999/xlink" x="0px" y="0px"
	 viewBox="0 0 512 512" style="enable-background:new 0 0 512 512;" xml:space="preserve">
<g>
	<path style="fill:#434A54;" d="M155.281,361.951l-83.844,83.844c-4.188,4.156-4.188,10.922,0,15.078
		c4.156,4.172,10.906,4.172,15.062,0l83.844-83.828L155.281,361.951z"/>
	<path style="fill:#434A54;" d="M440.375,445.795l-83.812-83.844l-15.094,15.094l83.844,83.828c4.156,4.172,10.906,4.172,15.062,0
		C444.562,456.717,444.562,449.951,440.375,445.795z"/>
	<path style="fill:#434A54;" d="M266.688,453.326v-90.984h-21.344v91l0,0c0,2.719,1.031,5.453,3.125,7.531
		c4.156,4.172,10.906,4.172,15.094,0C265.625,458.795,266.688,456.061,266.688,453.326z"/>
</g>
<polygon style="fill:#CCD1D9;" points="416,314.67 96,314.67 138.688,378.67 373.344,378.67 "/>
<path style="fill:#F6BB42;" d="M105.125,282.67c-6.031-17.062,307.812-17.062,301.781,0h22.469
	c5.156-16.859,7.969-34.766,7.969-53.328c0-100.156-81.188-181.344-181.344-181.344c-100.125,0-181.312,81.188-181.312,181.344
	c0,18.562,2.781,36.469,7.969,53.328H105.125z"/>
<path style="fill:#E6E9ED;" d="M512,282.67c0,29.453-23.875,53.328-53.344,53.328H53.344C23.875,335.998,0,312.123,0,282.67l0,0
	c0-29.453,23.875-53.328,53.344-53.328h405.312C488.125,229.342,512,253.217,512,282.67L512,282.67z"/>
<path d="M138.688,282.67c0,5.891-4.781,10.672-10.688,10.672c-5.875,0-10.656-4.781-10.656-10.672s4.781-10.672,10.656-10.672
	C133.906,271.998,138.688,276.779,138.688,282.67z"/>
<path d="M224,282.67c0,5.891-4.75,10.672-10.656,10.672c-5.875,0-10.656-4.781-10.656-10.672s4.781-10.672,10.656-10.672
	C219.25,271.998,224,276.779,224,282.67z"/>
<path d="M309.344,282.67c0,5.891-4.781,10.672-10.656,10.672c-5.906,0-10.688-4.781-10.688-10.672s4.781-10.672,10.688-10.672
	C304.562,271.998,309.344,276.779,309.344,282.67z"/>
<path d="M394.688,282.67c0,5.891-4.781,10.672-10.688,10.672c-5.875,0-10.656-4.781-10.656-10.672s4.781-10.672,10.656-10.672
	C389.906,271.998,394.688,276.779,394.688,282.67z"/>
<path style="fill:#FFCE54;" d="M256,90.186c-5.875,0-10.656,4.766-10.656,10.672c0,5.891,4.781,10.656,10.656,10.656
	c31.469,0,61.062,12.266,83.312,34.516s34.531,51.828,34.531,83.312h21.312C395.156,152.482,332.875,90.186,256,90.186z"/>
<g>
	<rect x="181.34" y="336" style="fill:#AAB2BD;" width="21.344" height="42.672"/>
	<rect x="245.34" y="336" style="fill:#AAB2BD;" width="21.344" height="42.672"/>
	<rect x="309.34" y="336" style="fill:#AAB2BD;" width="21.344" height="42.672"/>
</g>
<g>
</g>
<g>
</g>
<g>
</g>
<g>
</g>
<g>
</g>
<g>
</g>
<g>
</g>
<g>
</g>
<g>
</g>
<g>
</g>
<g>
</g>
<g>
</g>
<g>
</g>
<g>
</g>
<g>
</g>
</svg>
